<svg width="2659" height="940" viewBox="0 0 2659 940" fill="none" xmlns="http://www.w3.org/2000/svg">
<path d="M697.224 438.321C696.323 430.739 699.558 421.351 703.013 414.255C704.088 412.041 708.157 413.454 709.079 411.911C710.869 408.88 708.956 405.939 710.957 402.804C711.64 401.77 718.182 403.241 718.746 402.133C721.78 395.988 720.043 390.331 721.167 384.231C726.67 353.671 722.392 323.348 711.669 294.778C708.231 285.44 706.899 271.511 698.466 264.306C697.492 263.485 693.245 267.463 692.724 267.553C684.763 268.998 694.849 263.057 694.633 260.197C693.718 248.852 686.594 240.005 678.293 235.022C674.75 232.926 669.666 243.943 671.277 236.585C671.372 236.077 676.321 232.322 675.968 231.09C675.156 228.287 670.841 225.887 669.676 224.256C667.438 221.063 666.904 220.702 664.159 218.391C660.455 215.216 657.53 209.217 652.324 207.307C651.214 206.923 648.862 212.929 646.805 212.814C644.758 212.692 641.191 209.711 640.64 207.623C640.096 205.527 643.283 201.702 643.645 200.592C646.639 191.173 634.891 199.587 634.188 199.576C620.358 198.059 613.831 186.619 602.193 181.982C593.419 178.523 583.145 177.727 574.688 175.026C564.633 171.793 556.439 166.508 545.972 165.341C544.875 165.215 544.938 172.711 543.622 172.578C529.681 171.198 516.168 169.205 502.051 164.007C500.63 163.482 502.569 157.021 501.129 156.109C492.549 150.577 476.455 138.545 473.59 167.192C467.646 166.566 460.494 166.251 454.366 161.404C450.386 158.295 452.684 150.794 448.833 154.448C447.971 155.268 450.207 161.172 448.867 161.937C443.265 165.149 436.397 164.455 431.293 168.912C430.265 169.831 431.847 175.156 431.748 176.204C430.933 184.687 423.234 172.866 421.915 172.219C412.362 167.282 407.368 171.802 400.317 174.039C398.673 174.564 403.032 180.931 401.569 181.68C393.975 185.475 385.787 188.089 376.869 188.54C374.871 188.629 373.771 182.153 372.667 181.908C367.758 180.952 372.151 192.136 367.682 191.465C366.739 191.344 364.699 186.292 364.302 185.824C357.99 178.518 362.237 191.266 361.89 191.779C357.347 198.702 346.334 189.045 341.016 194.606C340.409 195.274 345.669 200.096 343.775 201.601C335.037 208.607 325.545 214.754 315.27 220.224C311.016 222.405 306.599 224.55 302.014 226.662C299.697 227.75 297.302 222.87 296.754 222.515C287.883 217.298 296.142 227.926 295.987 228.81C294.418 235.631 281.927 233.073 291.557 246.413C270.655 263.747 266.162 291.184 243.562 311.89C243.287 312.168 237.337 309.33 236.81 309.904C230.436 316.88 240.611 318.766 250.795 327.786C253.365 330.015 237.752 329.617 236.576 329.723C232.28 329.913 223.331 325.755 222.442 325.987C215.369 328.16 246.565 336.415 245.268 341.229C245.175 341.37 239.611 339.181 238.929 339.444C236.787 340.27 238.732 342.164 236.423 342.938C231.103 344.678 215.553 342.168 223.349 348.972C224.377 349.813 242.399 353.039 240.594 357.238C239.839 358.914 238.579 366.838 237.031 368.87C235.465 370.893 229.93 368.33 229.651 368.44C220.889 373.28 218.112 370.405 206.18 371.805C194.294 373.319 221.568 376.578 224.406 378.288C227.234 379.983 220.227 383.61 217.863 384.483C215.495 385.334 211.963 383.422 210.574 384.284C201.503 390.127 223.726 388.919 227.791 391.603C237.466 397.749 216.835 399.678 214.453 404.388C213.813 405.642 218.517 404.95 218.861 406.127C220.176 410.745 213.658 413.145 219.229 418.626C220.133 419.56 232.196 424.082 223.155 426.487C221.851 426.838 216.807 425.603 215.624 427.536C213.843 430.406 212.681 435.689 214.396 438.832C215.664 441.14 224.002 438.447 221.43 441.342C220.285 442.64 215.368 440.296 213.628 442.757C211.878 445.213 212.261 451.474 212.538 453.844C212.808 456.212 219.088 454.636 219.523 454.812C222.01 455.859 225.291 460.104 225.311 460.488C227.217 479.851 219.004 499.598 226.368 518.161C226.937 519.6 233.281 517.257 233.436 517.463C237.23 521.911 218.991 521.578 213.964 526.493C227.107 523.077 225.156 525.728 227.442 528.986C228.555 530.548 233.447 528.399 234.008 528.434C242.359 529.087 232.775 533.234 230.848 534.222C223.748 537.803 233.104 537.387 228.389 539.837C223.725 542.319 215.625 541.539 216.663 545.058C221.613 544.764 233.187 538.942 235.866 540.973C245.832 548.454 242.111 568.821 244.22 576.868C246.18 584.751 248.051 586.768 248.317 591.799C248.895 600.889 256.215 594.174 262.282 596.96C268.372 599.669 246.493 607.62 242.348 610.49C238.225 613.388 243.198 611.883 241.182 613.97C239.175 616.071 235.19 615.681 235.316 618.22C235.451 620.804 246.261 622.315 251.208 620.485C261.702 616.681 270.578 608.826 269.729 615.681C269.678 616.084 263.843 618.133 263.923 619.533C264.77 630.608 270.146 639.706 272.685 650.46C273.033 651.951 266.772 654.84 266.922 655.764C268.58 665.449 276.022 656.215 288.845 652.133C274.808 661.564 268.148 669.982 272.438 675.433C275.005 678.668 280.244 673.411 285.862 672.006C287.539 671.566 285.543 677.003 288.496 675.103C298.11 668.846 305.934 658.591 306.382 666.628C306.395 666.997 301.205 670.522 301.588 671.498C304.133 677.858 313.232 670.214 318.852 673.758C323.212 676.5 325.195 688.064 329.136 692.794C316.875 707.317 324.494 707.899 334.31 698.904C337.094 701.733 340.944 703.633 343.055 707.301C343.789 708.561 339.951 712.591 339.749 713.174C336.664 722.369 345.278 712.792 346.235 712.827C356.446 713.739 358.406 726.042 370.664 721.775C371.114 721.623 377.51 710.089 375.189 719.701C375.044 720.369 369.746 724.436 373.242 726.694C376.647 728.921 381.146 738.759 389.024 735.325C390.994 734.538 397.946 725.769 397.608 734.558C397.565 735.753 395.868 739.161 395.658 741.326C395.073 748.255 400.439 736.015 398.711 747.406C396.972 758.789 399.065 768.468 407.507 762.797C407.78 762.64 412.154 752.911 413.966 753.588C416.921 754.702 420.41 757.876 423.572 758.553C425.068 758.869 425.617 752.255 425.902 752.199C436.343 750.842 442.775 757.984 453.057 761.95C455.026 762.704 461.636 754.491 464.813 761.886C468.46 769.975 460.942 801.752 472.575 794.89C477.655 792.129 483.909 751.538 490.498 772.833C504.506 767.817 518.484 778.065 531.869 769.324C532.487 768.935 533.382 757.392 534.839 757.398C537.025 757.428 538.808 762.594 540.435 762.763C547.318 763.593 552.788 758.227 558.859 757.987C561.216 757.872 561.28 763.449 564.145 763.286C567.03 763.106 567.62 755.638 572.071 758.378C575.43 760.469 581.251 774.457 585.681 775.306C582.87 760.938 585.638 760.688 589.625 755.84C590.387 754.902 588.283 750.153 588.583 749.453C589.776 746.494 592.141 750.282 593.079 747.127C593.302 746.37 592.176 741.5 592.289 740.607C593.17 732.842 600.131 742.701 601.399 744.398C606.128 750.872 605.893 744.214 608.877 746.454C611.89 748.683 609.435 753.123 612.557 754.129C619.053 756.2 626.109 753.349 631.959 751.809C634.289 751.164 630.765 745.262 631.053 745.021C635.207 741.987 641.691 747.358 640.071 733.906C653.863 765.544 641.693 729.886 650.191 734.261C650.866 734.618 656.817 749.758 655.6 752.695C654.375 755.632 649.77 751.821 648.207 756.245C647.852 757.283 648.787 772.984 648.531 774.031C646.634 782.198 638.844 759.177 638.251 757.967C631.653 744.95 631.587 762.1 630.624 763.561C626.274 770.257 620.438 768.333 616.61 773.189C614.096 776.333 617.768 791.811 615.109 791.989C606.109 792.591 598.868 771.502 594.759 792.117C593.869 796.504 599.235 813.158 589.965 801.124C589.35 800.374 582.235 789.053 581.046 797.323C580.893 798.368 581.845 803.344 581.47 803.848C578.928 807.126 576.186 803.52 573.238 805.989C570.286 808.458 566.759 811.948 562.764 810.805C560.332 810.13 556.233 801.171 554.74 799.04C550.725 792.869 548.726 804.114 545.827 796.335C542.994 788.505 545.186 775.872 539.788 771.213C541.056 784.317 542.103 797.795 543.215 810.991C531.539 811.774 520.909 808.278 509.104 809.237C507.654 809.366 509.356 816.396 507.786 816.715C501.118 818.015 495.373 812.997 488.649 814.881C483.363 816.359 477.697 823.644 471.554 825.157C468.948 809.92 460.387 814.381 454.529 812.329C452.498 811.624 453.1 807.641 451.804 806.166C446.961 800.676 447.824 814.19 446.021 816.071C438.106 824.002 442.08 794.153 434.477 793.602C434.125 793.579 426.216 808.445 425.265 809.268C419.534 814.774 425.616 803.643 423.128 801.924C418.594 798.759 416.185 794.286 409.41 797.434C407.465 798.382 400.836 806.994 399.517 798.563C399.358 797.463 401.056 792.427 400.797 792.03C396.086 785.262 391.123 801.149 385.67 805.345C380.169 809.519 378.261 796.644 378.362 793.141C378.437 784.037 381.783 790.477 382.231 789.731C387.34 780.896 382.932 781.194 380.363 779.327C385.628 763.844 381.544 763.333 377.692 777.449C377.285 778.999 380.049 778.417 380.363 779.327C372.313 793.459 366.511 793.435 367.314 777.492C367.765 770.033 373.111 763.473 365.261 763.251C361.699 763.11 358.144 773.873 354.064 775.346C344.609 778.63 341.307 765.055 334.307 762.904C331.73 762.106 330.861 768.729 328.968 768.348C323.885 767.308 322.687 761.135 317.365 760.506C316.872 760.45 314.27 766.457 312.935 765.685C302.747 759.893 296.813 750.411 287.666 742.728C283.249 739.064 272.973 734.7 269.086 729.939C262.177 721.721 260.457 706.103 253.173 701.036C248.391 697.654 244.245 702.718 239.247 703.576C229.459 705.126 236.218 688.847 237.531 686.621C237.572 686.558 241.737 689.52 242.8 685.446C247.402 680.093 237.595 686.656 237.531 686.621C238.271 685.119 233.763 676.409 231.685 675.511C230.534 675.032 225.838 678.992 225.328 678.668C213.275 670.832 204.817 659.934 200.955 646.71C200.952 646.444 207.143 643.516 207.065 642.937C206.163 634.79 196.589 634.318 189.313 630.601C182.069 626.913 181.442 621.347 190.775 613.314C187.529 609.517 189.812 601.285 191.403 596.606C192.991 591.938 180.341 596.075 179.968 595.837C168.33 588.557 173.5 579.982 171.473 569.119C170.511 563.923 165.91 554.357 163.164 549.14C160.953 545.018 163.386 541.675 160.548 538.056C160.168 537.563 154.497 539.382 154.237 539.262C146.308 536.139 160.964 535.337 163.297 533.869C171.806 528.557 176.317 525.655 170.912 520.817C169.679 519.742 148.437 519.487 146.809 517.124C144.744 514.111 152.325 514.147 150.004 511.049C149.814 510.782 145.259 511.55 145.142 509.406C144.538 499.456 145.949 488.51 144.629 478.39C144.467 477.001 137.323 479.411 136.969 477.39C135.314 467.9 135.047 457.314 138.275 447.917C139.094 445.612 144.248 446.946 145.759 446.423C154.902 443.292 141.501 439.225 141.247 438.477C134.826 421.445 147.493 408.891 143.325 391.4C143.059 390.496 129.565 381.546 142.189 379.713C143.031 379.558 155.894 377.993 147.736 374.104C147.228 373.853 140.535 374.995 141.661 371.602C142.783 368.235 139.342 361.96 147.181 358.294C149.655 357.106 162.597 355.859 153.6 349.616C152.937 349.296 132.153 337.76 147.982 338.457C150.589 338.583 166.621 342.484 159.509 335.479C158.136 334.113 154.12 335.14 152.491 331.949C150 326.959 155.63 322.583 149.886 315.607C148.854 314.415 139.108 307.528 148.182 306.789C149.6 306.684 154.639 309.107 155.691 307.696C160.68 301.14 159.785 291.891 166.087 285.608C168.31 283.392 176.202 287.776 179.432 285.912C182.669 284.02 186.82 279.661 184.223 275.26C181.618 270.87 167.16 268.64 167.957 263.771C171.554 242.501 188.825 227.306 201.534 210.258C203.457 207.694 197.731 207.089 200.338 203.072C209.298 188.501 227.065 160.643 246.674 157.972C261.764 156.1 254.561 171.301 263.771 167.871C266.149 167.019 265.133 162.014 263.934 157.365C262.824 153.572 261.542 150.05 261.757 149.574C266.347 139.157 276.338 140.891 282.325 134.012C283.592 132.576 278.293 128.092 279.435 126.919C283.337 122.846 289.8 122.216 293.918 119.027C295.764 117.582 292.731 113.443 294.797 112.653C299.686 110.736 304.817 110.262 311.48 112.061C312.076 112.231 312.523 119.247 315.881 117.67C321.359 115.085 329.935 115.982 334.018 108.635C335.21 106.446 330.376 95.786 337.804 101.262C339.367 102.41 344.011 115.686 343.732 102.549C343.593 100.385 345.432 81.8147 353.451 90.0108C355.553 92.1608 362.333 101.841 363.936 99.3121C364.147 98.9253 360.68 93.5201 362.381 92.2292C368.44 87.7801 375.81 85.9738 382.352 81.9034C384.107 80.8037 379.335 75.468 382.051 74.0207C389.551 70.0187 400.08 68.9431 408.403 69.1372C411.473 69.2195 410.652 74.9254 410.997 75.4471C416.388 83.9937 415.588 71.0293 416.59 70.0524C422.707 64.1981 429.208 69.1572 435.395 66.5486C437.121 65.8464 434.901 59.9904 435.175 59.394C438.134 53.5342 436.999 64.845 439.526 65.6926C446.584 68.1176 453.726 66.7534 460.317 65.3442C462.737 64.8202 459.315 57.9984 461.524 57.611C474.607 55.1901 488.645 55.3236 501.437 59.3704C503.843 60.1466 502.257 65.6039 502.741 66.8595C505.974 75.6386 511.203 63.865 512.462 62.7798C517.977 57.8037 519.836 62.7562 524.539 62.158C547.812 59.0771 575.928 66.9589 596.389 74.5183C623.263 84.3536 641.728 96.9608 666.406 107.822C667.976 108.535 669.734 101.256 671.151 101.8C689.426 109.233 704.459 121.949 721.566 132.276C722.974 133.146 725.247 126.198 727.679 127.442C732.704 129.961 737.975 134.717 740.776 140.036C742.139 142.611 735.536 144.738 736.952 147.214C740.215 152.979 744.719 157.791 750.061 161.477C752.353 163.051 754.34 155.096 756.969 157.578C774.91 174.374 791.71 193.507 796.973 219.386C797.334 221.168 785.823 229.828 789.914 231.342C793.476 229.544 797.508 227.158 801.236 225.103C821.311 254.724 829.061 289.968 835.121 323.542C835.377 324.953 842.329 320.981 842.867 323.748C845.96 339.782 850.107 355.735 843.584 372.61C842.941 374.292 829.561 374.241 831.812 378.796C832.238 379.697 834.262 386.347 837.186 388.107C837.629 388.346 843.845 386.926 844.071 389.193C845.272 402.416 843.348 416.551 838.505 428.967C837.709 430.994 831.265 428.243 830.641 429.664C826.259 439.783 829.92 451.273 822.446 459.961C817.409 465.715 806.443 461.488 794.743 462.826C793.097 463.008 792.174 466.726 785.663 465.721C769.303 463.184 751.784 458.246 734.305 455.763C730.548 455.216 733.753 460.303 725.213 456.042C724.647 455.745 722.215 452.113 719.273 450.84C717.242 449.954 710.49 449.704 707.955 448.204C705.417 446.72 711.142 446.536 708.222 444.326C705.252 442.137 697.629 441.648 697.224 438.321ZM198.925 575.927C203.924 570.706 181.503 577.488 188.025 579.345C188.367 579.427 198.684 576.194 198.925 575.927ZM519.56 790.508C514.824 780.435 512.421 795.725 515.995 803.552C519.536 811.36 521.079 793.554 519.56 790.508ZM563.383 778.085C557.327 770.797 561.456 803.759 565.861 796.274C566.121 795.848 563.744 778.506 563.383 778.085ZM793.856 447.563C793.544 447.566 792.873 450.158 793.167 450.266C800.327 452.756 801.68 447.471 793.856 447.563ZM604.495 761.24C601.952 757.25 598.996 763.298 602.118 768.291C604.66 772.304 607.695 766.201 604.495 761.24ZM203.047 403.611C203.398 403.587 203.861 401.78 201.893 401.65C195.55 401.241 197.128 403.99 203.047 403.611ZM674.516 738.767C663.543 741.545 648.443 717.759 660.294 716.763C662.472 716.56 659.033 726.541 662.407 727.94C668.663 730.447 665.665 713.173 673.738 719.951C675.243 721.184 675.186 738.663 674.511 738.81C674.513 738.796 674.514 738.781 674.516 738.767ZM225.012 565.234C225.284 565.077 224.776 562.576 224.467 562.611C216.957 563.563 218.008 568.707 225.012 565.234ZM239.83 303.593C240.477 303.714 243.15 298.662 242.674 298.254C232.565 290.778 226.935 301.435 239.83 303.593ZM328.887 693.244C335.642 689.123 338.4 690.187 334.306 698.89C332.566 696.916 330.586 695.242 328.887 693.244Z" fill="#202226"/>
<path d="M736.281 767C728.469 767 724.562 763.094 724.562 755.281V490.438C724.562 482.625 728.469 478.719 736.281 478.719H767.531C775.344 478.719 779.25 482.625 779.25 490.438V569.344C779.25 574.552 778.99 579.76 778.469 584.969H779.641C785.63 574.682 793.247 567.651 802.492 563.875C811.737 559.969 822.87 558.016 835.891 558.016C856.203 558.016 873 564.396 886.281 577.156C899.562 589.917 906.203 613.224 906.203 647.078V755.281C906.203 763.094 902.297 767 894.484 767H863.234C855.422 767 851.516 763.094 851.516 755.281V661.141C851.516 632.755 849.562 614.852 845.656 607.43C841.75 600.008 833.352 596.297 820.461 596.297C806.789 596.297 796.503 601.635 789.602 612.312C782.701 622.859 779.25 644.865 779.25 678.328V755.281C779.25 763.094 775.344 767 767.531 767H736.281ZM948 712.312C948 686.271 960.435 667.391 985.305 655.672C1010.17 643.953 1038.56 637.703 1070.46 636.922V629.109C1070.46 617.13 1067.47 608.667 1061.48 603.719C1055.49 598.771 1047.15 596.297 1036.48 596.297C1028.92 596.297 1022.22 597.404 1016.36 599.617C1010.63 601.701 1005.62 604.174 1001.32 607.039C997.154 609.773 993.378 612.573 989.992 615.438C984.003 620.646 979.055 620.906 975.148 616.219L958.938 596.297C954.901 591.349 955.878 586.271 961.867 581.062C966.424 577.026 971.698 573.51 977.688 570.516C983.807 567.521 991.88 564.721 1001.91 562.117C1011.93 559.383 1024.95 558.016 1040.97 558.016C1068.05 558.016 1088.82 564.266 1103.27 576.766C1117.86 589.266 1125.15 607.69 1125.15 632.039V755.281C1125.15 763.094 1121.24 767 1113.43 767H1081.4C1074.37 767 1070.85 763.094 1070.85 755.281V749.422H1070.46C1062.78 756.844 1053.53 762.312 1042.73 765.828C1032.05 769.214 1022.22 770.906 1013.23 770.906C991.88 770.906 975.669 765.698 964.602 755.281C953.534 744.734 948 730.411 948 712.312ZM1005.81 711.141C1005.81 715.698 1006.72 719.669 1008.55 723.055C1010.37 726.31 1013.23 728.719 1017.14 730.281C1021.05 731.844 1025.41 732.625 1030.23 732.625C1036.87 732.625 1043.31 731.714 1049.56 729.891C1055.81 728.068 1062.78 723.771 1070.46 717V674.617C1048.59 677.091 1033.94 680.281 1026.52 684.188C1019.09 688.094 1013.76 692.13 1010.5 696.297C1007.38 700.464 1005.81 705.411 1005.81 711.141ZM1190.19 767C1182.38 767 1178.47 763.094 1178.47 755.281V524.617C1178.47 518.758 1179.84 513.419 1182.57 508.602L1197.61 482.234C1200.47 477.286 1203.86 474.812 1207.77 474.812H1221.44C1229.25 474.812 1233.16 478.719 1233.16 486.531V755.281C1233.16 763.094 1229.25 767 1221.44 767H1190.19ZM1298 767C1290.19 767 1286.28 763.094 1286.28 755.281V524.617C1286.28 518.758 1287.65 513.419 1290.38 508.602L1305.42 482.234C1308.29 477.286 1311.67 474.812 1315.58 474.812H1329.25C1337.06 474.812 1340.97 478.719 1340.97 486.531V755.281C1340.97 763.094 1337.06 767 1329.25 767H1298ZM1383.16 664.461C1383.16 631.518 1391.36 605.542 1407.77 586.531C1424.3 567.521 1447.61 558.016 1477.69 558.016C1512.58 558.016 1538.49 567 1555.42 584.969C1572.35 602.938 1580.81 631.844 1580.81 671.688C1580.81 679.5 1577.17 683.406 1569.88 683.406H1440.97C1443.05 705.021 1448.39 718.628 1456.98 724.227C1465.58 729.826 1475.54 732.625 1486.87 732.625C1497.67 732.625 1505.94 731.193 1511.67 728.328C1517.4 725.464 1522.22 721.557 1526.12 716.609C1530.55 710.88 1536.02 709.969 1542.53 713.875L1562.06 725.789C1569.74 730.477 1570.85 736.076 1565.38 742.586C1557.44 752.091 1548.13 759.188 1537.45 763.875C1526.78 768.562 1509.91 770.906 1486.87 770.906C1449.5 770.906 1422.87 761.401 1406.98 742.391C1391.1 723.38 1383.16 697.404 1383.16 664.461ZM1441.16 644.344H1526.12C1526.12 630.281 1522.61 618.823 1515.58 609.969C1508.55 600.984 1497.35 596.492 1481.98 596.492C1469.74 596.492 1460.04 600.789 1452.88 609.383C1445.72 617.846 1441.82 629.5 1441.16 644.344ZM1635.11 767C1627.3 767 1623.39 763.094 1623.39 755.281V573.641C1623.39 565.828 1627.3 561.922 1635.11 561.922H1665.97C1673.78 561.922 1677.69 565.828 1677.69 573.641V584.969H1678.47C1684.46 574.682 1692.08 567.651 1701.32 563.875C1710.57 559.969 1721.7 558.016 1734.72 558.016C1755.03 558.016 1771.83 564.396 1785.11 577.156C1798.39 589.917 1805.03 613.224 1805.03 647.078V755.281C1805.03 763.094 1801.12 767 1793.31 767H1762.06C1754.25 767 1750.34 763.094 1750.34 755.281V661.141C1750.34 632.755 1748.39 614.852 1744.48 607.43C1740.58 600.008 1732.18 596.297 1719.29 596.297C1705.62 596.297 1695.33 601.635 1688.43 612.312C1681.53 622.859 1678.08 644.865 1678.08 678.328V755.281C1678.08 763.094 1674.17 767 1666.36 767H1635.11ZM1846.83 664.461C1846.83 635.815 1853.01 610.945 1865.38 589.852C1877.88 568.628 1899.43 558.016 1930.03 558.016C1941.75 558.016 1951.78 559.708 1960.11 563.094C1968.44 566.479 1975.99 573.771 1982.77 584.969H1983.55L1984.33 573.641C1984.85 565.828 1988.36 561.922 1994.88 561.922H2025.73C2033.55 561.922 2037.45 565.828 2037.45 573.641V764.852C2037.45 796.753 2028.86 818.758 2011.67 830.867C1994.48 842.977 1969.61 849.031 1937.06 849.031C1923.26 849.031 1910.5 848.315 1898.78 846.883C1887.06 845.451 1875.21 841.87 1863.23 836.141C1856.98 833.146 1855.94 827.482 1860.11 819.148L1867.14 805.086C1870.01 799.357 1874.76 798.055 1881.4 801.18C1886.74 803.654 1893.31 805.867 1901.12 807.82C1909.07 809.773 1919.09 810.75 1931.2 810.75C1947.87 810.75 1960.63 807.625 1969.48 801.375C1978.34 795.255 1982.77 781.779 1982.77 760.945V757.625C1982.77 752.417 1983.03 747.208 1983.55 742H1982.77C1975.99 753.198 1968.44 760.49 1960.11 763.875C1951.78 767.26 1941.75 768.953 1930.03 768.953C1899.43 768.953 1877.88 758.406 1865.38 737.312C1853.01 716.089 1846.83 691.805 1846.83 664.461ZM1904.64 664.461C1904.64 683.992 1907.31 699.943 1912.65 712.312C1918.12 724.552 1929.64 730.672 1947.22 730.672C1956.98 730.672 1965.32 725.203 1972.22 714.266C1979.25 703.198 1982.77 688.875 1982.77 671.297V655.672C1982.77 638.094 1979.25 623.836 1972.22 612.898C1965.32 601.831 1956.98 596.297 1947.22 596.297C1929.64 596.297 1918.12 602.482 1912.65 614.852C1907.31 627.091 1904.64 643.628 1904.64 664.461ZM2079.64 664.461C2079.64 631.258 2088.17 605.216 2105.23 586.336C2122.41 567.456 2147.93 558.016 2181.79 558.016C2215.64 558.016 2241.1 567.456 2258.16 586.336C2275.34 605.216 2283.94 631.258 2283.94 664.461C2283.94 697.664 2275.34 723.706 2258.16 742.586C2241.1 761.466 2215.64 770.906 2181.79 770.906C2147.93 770.906 2122.41 761.466 2105.23 742.586C2088.17 723.706 2079.64 697.664 2079.64 664.461ZM2137.45 664.461C2137.45 689.201 2141.23 706.779 2148.78 717.195C2156.46 727.482 2167.47 732.625 2181.79 732.625C2196.11 732.625 2207.05 727.482 2214.6 717.195C2222.28 706.779 2226.12 689.201 2226.12 664.461C2226.12 639.721 2222.28 622.208 2214.6 611.922C2207.05 601.505 2196.11 596.297 2181.79 596.297C2167.47 596.297 2156.46 601.505 2148.78 611.922C2141.23 622.208 2137.45 639.721 2137.45 664.461ZM2337.84 767C2330.03 767 2326.12 763.094 2326.12 755.281V573.641C2326.12 565.828 2330.03 561.922 2337.84 561.922H2368.7C2376.52 561.922 2380.42 565.828 2380.42 573.641V589.656H2381.2C2384.59 581.323 2390.25 573.966 2398.2 567.586C2406.14 561.206 2415.51 558.016 2426.32 558.016C2433.74 558.016 2439.86 558.927 2444.68 560.75C2449.24 562.443 2450.99 565.568 2449.95 570.125L2444.48 593.367C2443.31 598.576 2439.8 600.138 2433.94 598.055C2430.55 596.883 2427.3 596.297 2424.17 596.297C2411.67 596.297 2401.32 603.784 2393.12 618.758C2384.91 633.732 2380.81 655.542 2380.81 684.188V755.281C2380.81 763.094 2376.91 767 2369.09 767H2337.84Z" fill="#202226"/>
</svg>
