<svg width="1024" height="1024" viewBox="0 0 1024 1024" fill="none" xmlns="http://www.w3.org/2000/svg">
<rect width="1024" height="1024" fill="#779F7F"/>
<path d="M717.224 502.321C716.323 494.739 719.558 485.351 723.013 478.255C724.088 476.041 728.157 477.454 729.079 475.911C730.869 472.88 728.956 469.939 730.957 466.804C731.64 465.77 738.182 467.241 738.746 466.133C741.78 459.988 740.043 454.331 741.167 448.231C746.67 417.671 742.392 387.348 731.669 358.778C728.231 349.44 726.899 335.511 718.466 328.306C717.492 327.485 713.245 331.463 712.724 331.553C704.763 332.998 714.849 327.057 714.633 324.197C713.718 312.852 706.594 304.005 698.293 299.022C694.75 296.926 689.666 307.943 691.277 300.585C691.372 300.077 696.321 296.322 695.968 295.09C695.156 292.287 690.841 289.887 689.676 288.256C687.438 285.063 686.904 284.702 684.159 282.391C680.455 279.216 677.53 273.217 672.324 271.307C671.214 270.923 668.862 276.929 666.805 276.814C664.758 276.692 661.191 273.711 660.64 271.623C660.096 269.527 663.283 265.702 663.645 264.592C666.639 255.173 654.891 263.587 654.188 263.576C640.358 262.059 633.831 250.619 622.193 245.982C613.419 242.523 603.145 241.727 594.688 239.026C584.633 235.793 576.439 230.508 565.972 229.341C564.875 229.215 564.938 236.711 563.622 236.578C549.681 235.198 536.168 233.205 522.051 228.007C520.63 227.482 522.569 221.021 521.129 220.109C512.549 214.577 496.455 202.545 493.59 231.192C487.646 230.566 480.494 230.251 474.366 225.404C470.386 222.295 472.684 214.794 468.833 218.448C467.971 219.268 470.207 225.172 468.867 225.937C463.265 229.149 456.397 228.455 451.293 232.912C450.265 233.831 451.847 239.156 451.748 240.204C450.933 248.687 443.234 236.866 441.915 236.219C432.362 231.282 427.368 235.802 420.317 238.039C418.673 238.564 423.032 244.931 421.569 245.68C413.975 249.475 405.787 252.089 396.869 252.54C394.871 252.629 393.771 246.153 392.667 245.908C387.758 244.952 392.151 256.136 387.682 255.465C386.739 255.344 384.699 250.292 384.302 249.824C377.99 242.518 382.237 255.266 381.89 255.779C377.347 262.702 366.334 253.045 361.016 258.606C360.409 259.274 365.669 264.096 363.775 265.601C355.037 272.607 345.545 278.754 335.27 284.224C331.016 286.405 326.599 288.55 322.014 290.662C319.697 291.75 317.302 286.87 316.754 286.515C307.883 281.298 316.142 291.926 315.987 292.81C314.418 299.631 301.927 297.073 311.557 310.413C290.655 327.747 286.162 355.184 263.562 375.89C263.287 376.168 257.337 373.33 256.81 373.904C250.436 380.88 260.611 382.766 270.795 391.786C273.365 394.015 257.752 393.617 256.576 393.723C252.28 393.913 243.331 389.755 242.442 389.987C235.369 392.16 266.565 400.415 265.268 405.229C265.175 405.37 259.611 403.181 258.929 403.444C256.787 404.27 258.732 406.164 256.423 406.938C251.103 408.678 235.553 406.168 243.349 412.972C244.377 413.813 262.399 417.039 260.594 421.238C259.839 422.914 258.579 430.838 257.031 432.87C255.465 434.893 249.93 432.33 249.651 432.44C240.889 437.28 238.112 434.405 226.18 435.805C214.294 437.319 241.568 440.578 244.406 442.288C247.234 443.983 240.227 447.61 237.863 448.483C235.495 449.334 231.963 447.422 230.574 448.284C221.503 454.127 243.726 452.919 247.791 455.603C257.466 461.749 236.835 463.678 234.453 468.388C233.813 469.642 238.517 468.95 238.861 470.127C240.176 474.745 233.658 477.145 239.229 482.626C240.133 483.56 252.196 488.082 243.155 490.487C241.851 490.838 236.807 489.603 235.624 491.536C233.843 494.406 232.681 499.689 234.396 502.832C235.664 505.14 244.002 502.447 241.43 505.342C240.285 506.64 235.368 504.296 233.628 506.757C231.878 509.213 232.261 515.474 232.538 517.844C232.808 520.212 239.088 518.636 239.523 518.812C242.01 519.859 245.291 524.104 245.311 524.488C247.217 543.851 239.004 563.598 246.368 582.161C246.937 583.6 253.281 581.257 253.436 581.463C257.23 585.911 238.991 585.578 233.964 590.493C247.107 587.077 245.156 589.728 247.442 592.986C248.555 594.548 253.447 592.399 254.008 592.434C262.359 593.087 252.775 597.234 250.848 598.222C243.748 601.803 253.104 601.387 248.389 603.837C243.725 606.319 235.625 605.539 236.663 609.058C241.613 608.764 253.187 602.942 255.866 604.973C265.832 612.454 262.111 632.821 264.22 640.868C266.18 648.751 268.051 650.768 268.317 655.799C268.895 664.889 276.215 658.174 282.282 660.96C288.372 663.669 266.493 671.62 262.348 674.49C258.225 677.388 263.198 675.883 261.182 677.97C259.175 680.071 255.19 679.681 255.316 682.22C255.451 684.804 266.261 686.315 271.208 684.485C281.702 680.681 290.578 672.826 289.729 679.681C289.678 680.084 283.843 682.133 283.923 683.533C284.77 694.608 290.146 703.706 292.685 714.46C293.033 715.951 286.772 718.84 286.922 719.764C288.58 729.449 296.022 720.215 308.845 716.133C294.808 725.564 288.148 733.982 292.438 739.433C295.005 742.668 300.244 737.411 305.862 736.006C307.539 735.566 305.543 741.003 308.496 739.103C318.11 732.846 325.934 722.591 326.382 730.628C326.395 730.997 321.205 734.522 321.588 735.498C324.133 741.858 333.232 734.214 338.852 737.758C343.212 740.5 345.195 752.064 349.136 756.794C336.875 771.317 344.494 771.899 354.31 762.904C357.094 765.733 360.944 767.633 363.055 771.301C363.789 772.561 359.951 776.591 359.749 777.174C356.664 786.369 365.278 776.792 366.235 776.827C376.446 777.739 378.406 790.042 390.664 785.775C391.114 785.623 397.51 774.089 395.189 783.701C395.044 784.369 389.746 788.436 393.242 790.694C396.647 792.921 401.146 802.759 409.024 799.325C410.994 798.538 417.946 789.769 417.608 798.558C417.565 799.753 415.868 803.161 415.658 805.326C415.073 812.255 420.439 800.015 418.711 811.406C416.972 822.789 419.065 832.468 427.507 826.797C427.78 826.64 432.154 816.911 433.966 817.588C436.921 818.702 440.41 821.876 443.572 822.553C445.068 822.869 445.617 816.255 445.902 816.199C456.343 814.842 462.775 821.984 473.057 825.95C475.026 826.704 481.636 818.491 484.813 825.886C488.46 833.975 480.942 865.752 492.575 858.89C497.655 856.129 503.909 815.538 510.498 836.833C524.506 831.817 538.484 842.065 551.869 833.324C552.487 832.935 553.382 821.392 554.839 821.398C557.025 821.428 558.808 826.594 560.435 826.763C567.318 827.593 572.788 822.227 578.859 821.987C581.216 821.872 581.28 827.449 584.145 827.286C587.03 827.106 587.62 819.638 592.071 822.378C595.43 824.469 601.251 838.457 605.681 839.306C602.87 824.938 605.638 824.688 609.625 819.84C610.387 818.902 608.283 814.153 608.583 813.453C609.776 810.494 612.141 814.282 613.079 811.127C613.302 810.37 612.176 805.5 612.289 804.607C613.17 796.842 620.131 806.701 621.399 808.398C626.128 814.872 625.893 808.214 628.877 810.454C631.89 812.683 629.435 817.123 632.557 818.129C639.053 820.2 646.109 817.349 651.959 815.809C654.289 815.164 650.765 809.262 651.053 809.021C655.207 805.987 661.691 811.358 660.071 797.906C673.863 829.544 661.693 793.886 670.191 798.261C670.866 798.618 676.817 813.758 675.6 816.695C674.375 819.632 669.77 815.821 668.207 820.245C667.852 821.283 668.787 836.984 668.531 838.031C666.634 846.198 658.844 823.177 658.251 821.967C651.653 808.95 651.587 826.1 650.624 827.561C646.274 834.257 640.438 832.333 636.61 837.189C634.096 840.333 637.768 855.811 635.109 855.989C626.109 856.591 618.868 835.502 614.759 856.117C613.869 860.504 619.235 877.158 609.965 865.124C609.35 864.374 602.235 853.053 601.046 861.323C600.893 862.368 601.845 867.344 601.47 867.848C598.928 871.126 596.186 867.52 593.238 869.989C590.286 872.458 586.759 875.948 582.764 874.805C580.332 874.13 576.233 865.171 574.74 863.04C570.725 856.869 568.726 868.114 565.827 860.335C562.994 852.505 565.186 839.872 559.788 835.213C561.056 848.317 562.103 861.795 563.215 874.991C551.539 875.774 540.909 872.278 529.104 873.237C527.654 873.366 529.356 880.396 527.786 880.715C521.118 882.015 515.373 876.997 508.649 878.881C503.363 880.359 497.697 887.644 491.554 889.157C488.948 873.92 480.387 878.381 474.529 876.329C472.498 875.624 473.1 871.641 471.804 870.166C466.961 864.676 467.824 878.19 466.021 880.071C458.106 888.002 462.08 858.153 454.477 857.602C454.125 857.579 446.216 872.445 445.265 873.268C439.534 878.774 445.616 867.643 443.128 865.924C438.594 862.759 436.185 858.286 429.41 861.434C427.465 862.382 420.836 870.994 419.517 862.563C419.358 861.463 421.056 856.427 420.797 856.03C416.086 849.262 411.123 865.149 405.67 869.345C400.169 873.519 398.261 860.644 398.362 857.141C398.437 848.037 401.783 854.477 402.231 853.731C407.34 844.896 402.932 845.194 400.363 843.327C405.628 827.844 401.544 827.333 397.692 841.449C397.285 842.999 400.049 842.417 400.363 843.327C392.313 857.459 386.511 857.435 387.314 841.492C387.765 834.033 393.111 827.473 385.261 827.251C381.699 827.11 378.144 837.873 374.064 839.346C364.609 842.63 361.307 829.055 354.307 826.904C351.73 826.106 350.861 832.729 348.968 832.348C343.885 831.308 342.687 825.135 337.365 824.506C336.872 824.45 334.27 830.457 332.935 829.685C322.747 823.893 316.813 814.411 307.666 806.728C303.249 803.064 292.973 798.7 289.086 793.939C282.177 785.721 280.457 770.103 273.173 765.036C268.391 761.654 264.245 766.718 259.247 767.576C249.459 769.126 256.218 752.847 257.531 750.621C257.572 750.558 261.737 753.52 262.8 749.446C267.402 744.093 257.595 750.656 257.531 750.621C258.271 749.119 253.763 740.409 251.685 739.511C250.534 739.032 245.838 742.992 245.328 742.668C233.275 734.832 224.817 723.934 220.955 710.71C220.952 710.444 227.143 707.516 227.065 706.937C226.163 698.79 216.589 698.318 209.313 694.601C202.069 690.913 201.442 685.347 210.775 677.314C207.529 673.517 209.812 665.285 211.403 660.606C212.991 655.938 200.341 660.075 199.968 659.837C188.33 652.557 193.5 643.982 191.473 633.119C190.511 627.923 185.91 618.357 183.164 613.14C180.953 609.018 183.386 605.675 180.548 602.056C180.168 601.563 174.497 603.382 174.237 603.262C166.308 600.139 180.964 599.337 183.297 597.869C191.806 592.557 196.317 589.655 190.912 584.817C189.679 583.742 168.437 583.487 166.809 581.124C164.744 578.111 172.325 578.147 170.004 575.049C169.814 574.782 165.259 575.55 165.142 573.406C164.538 563.456 165.949 552.51 164.629 542.39C164.467 541.001 157.323 543.411 156.969 541.39C155.314 531.9 155.047 521.314 158.275 511.917C159.094 509.612 164.248 510.946 165.759 510.423C174.902 507.292 161.501 503.225 161.247 502.477C154.826 485.445 167.493 472.891 163.325 455.4C163.059 454.496 149.565 445.546 162.189 443.713C163.031 443.558 175.894 441.993 167.736 438.104C167.228 437.853 160.535 438.995 161.661 435.602C162.783 432.235 159.342 425.96 167.181 422.294C169.655 421.106 182.597 419.859 173.6 413.616C172.937 413.296 152.153 401.76 167.982 402.457C170.589 402.583 186.621 406.484 179.509 399.479C178.136 398.113 174.12 399.14 172.491 395.949C170 390.959 175.63 386.583 169.886 379.607C168.854 378.415 159.108 371.528 168.182 370.789C169.6 370.684 174.639 373.107 175.691 371.696C180.68 365.14 179.785 355.891 186.087 349.608C188.31 347.392 196.202 351.776 199.432 349.912C202.669 348.02 206.82 343.661 204.223 339.26C201.618 334.87 187.16 332.64 187.957 327.771C191.554 306.501 208.825 291.306 221.534 274.258C223.457 271.694 217.731 271.089 220.338 267.072C229.298 252.501 247.065 224.643 266.674 221.972C281.764 220.1 274.561 235.301 283.771 231.871C286.149 231.019 285.133 226.014 283.934 221.365C282.824 217.572 281.542 214.05 281.757 213.574C286.347 203.157 296.338 204.891 302.325 198.012C303.592 196.576 298.293 192.092 299.435 190.919C303.337 186.846 309.8 186.216 313.918 183.027C315.764 181.582 312.731 177.443 314.797 176.653C319.686 174.736 324.817 174.262 331.48 176.061C332.076 176.231 332.523 183.247 335.881 181.67C341.359 179.085 349.935 179.982 354.018 172.635C355.21 170.446 350.376 159.786 357.804 165.262C359.367 166.41 364.011 179.686 363.732 166.549C363.593 164.385 365.432 145.815 373.451 154.011C375.553 156.161 382.333 165.841 383.936 163.312C384.147 162.925 380.68 157.52 382.381 156.229C388.44 151.78 395.81 149.974 402.352 145.903C404.107 144.804 399.335 139.468 402.051 138.021C409.551 134.019 420.08 132.943 428.403 133.137C431.473 133.219 430.652 138.925 430.997 139.447C436.388 147.994 435.588 135.029 436.59 134.052C442.707 128.198 449.208 133.157 455.395 130.549C457.121 129.846 454.901 123.99 455.175 123.394C458.134 117.534 456.999 128.845 459.526 129.693C466.584 132.118 473.726 130.753 480.317 129.344C482.737 128.82 479.315 121.998 481.524 121.611C494.607 119.19 508.645 119.324 521.437 123.37C523.843 124.147 522.257 129.604 522.741 130.859C525.974 139.639 531.203 127.865 532.462 126.78C537.977 121.804 539.836 126.756 544.539 126.158C567.812 123.077 595.928 130.959 616.389 138.518C643.263 148.354 661.728 160.961 686.406 171.822C687.976 172.535 689.734 165.256 691.151 165.8C709.426 173.233 724.459 185.949 741.566 196.276C742.974 197.146 745.247 190.198 747.679 191.442C752.704 193.961 757.975 198.717 760.776 204.036C762.139 206.611 755.536 208.738 756.952 211.214C760.215 216.979 764.719 221.791 770.061 225.477C772.353 227.051 774.34 219.096 776.969 221.578C794.91 238.374 811.71 257.507 816.973 283.386C817.334 285.168 805.823 293.828 809.914 295.342C813.476 293.544 817.508 291.158 821.236 289.103C841.311 318.724 849.061 353.968 855.121 387.542C855.377 388.953 862.329 384.981 862.867 387.748C865.96 403.782 870.107 419.735 863.584 436.61C862.941 438.292 849.561 438.241 851.812 442.796C852.238 443.697 854.262 450.347 857.186 452.107C857.629 452.346 863.845 450.926 864.071 453.193C865.272 466.416 863.348 480.551 858.505 492.967C857.709 494.994 851.265 492.243 850.641 493.664C846.259 503.783 849.92 515.273 842.446 523.961C837.409 529.715 826.443 525.488 814.743 526.826C813.097 527.008 812.174 530.726 805.663 529.721C789.303 527.184 771.784 522.246 754.305 519.763C750.548 519.216 753.753 524.303 745.213 520.042C744.647 519.745 742.215 516.113 739.273 514.84C737.242 513.954 730.49 513.704 727.955 512.204C725.417 510.72 731.142 510.536 728.222 508.326C725.252 506.137 717.629 505.648 717.224 502.321ZM218.925 639.927C223.924 634.706 201.503 641.488 208.025 643.345C208.367 643.427 218.684 640.194 218.925 639.927ZM539.56 854.508C534.824 844.435 532.421 859.725 535.995 867.552C539.536 875.36 541.079 857.554 539.56 854.508ZM583.383 842.085C577.327 834.797 581.456 867.759 585.861 860.274C586.121 859.848 583.744 842.506 583.383 842.085ZM813.856 511.563C813.544 511.566 812.873 514.158 813.167 514.266C820.327 516.756 821.68 511.471 813.856 511.563ZM624.495 825.24C621.952 821.25 618.996 827.298 622.118 832.291C624.66 836.304 627.695 830.201 624.495 825.24ZM223.047 467.611C223.398 467.587 223.861 465.78 221.893 465.65C215.55 465.241 217.128 467.99 223.047 467.611ZM694.516 802.767C683.543 805.545 668.443 781.759 680.294 780.763C682.472 780.56 679.033 790.541 682.407 791.94C688.663 794.447 685.665 777.173 693.738 783.951C695.243 785.184 695.186 802.663 694.511 802.81C694.513 802.796 694.514 802.781 694.516 802.767ZM245.012 629.234C245.284 629.077 244.776 626.576 244.467 626.611C236.957 627.563 238.008 632.707 245.012 629.234ZM259.83 367.593C260.477 367.714 263.15 362.662 262.674 362.254C252.565 354.778 246.935 365.435 259.83 367.593ZM348.887 757.244C355.642 753.123 358.4 754.187 354.306 762.89C352.566 760.916 350.586 759.242 348.887 757.244Z" fill="#202226"/>
</svg>
